<svg xmlns="http://www.w3.org/2000/svg" version="1.1" xmlns:xlink="http://www.w3.org/1999/xlink" width="1500" height="1500" viewBox="0 0 1500 1500"><rect width="1500" height="1500" x="0" y="0" id="background" stroke="transparent" fill="#111111"></rect><svg xml:space="preserve" width="1000" height="1000" data-version="2" data-id="lg_4jXFki6ZOElvsyNgp2" viewBox="0 0 574 217" x="250" y="250"><rect width="100%" height="100%" fill="transparent"></rect><path fill="#fff" d="M97.312 1.985C48.215 5.457 8.992 44.68 5.522 93.775c-.272 3.832 2.753 7.094 6.593 7.094h85.682a6.61 6.61 0 0 0 6.61-6.61V8.579c0-3.84-3.262-6.863-7.093-6.594Zm121.502 92.37c-3.472-49.097-42.694-88.32-91.79-91.79-3.832-.272-7.094 2.753-7.094 6.593V94.84a6.61 6.61 0 0 0 6.61 6.61h85.68c3.84 0 6.863-3.262 6.594-7.093Zm-9.355 20.102c-49.097 3.472-88.32 42.694-91.79 91.79-.272 3.832 2.753 7.094 6.593 7.094h85.682a6.61 6.61 0 0 0 6.61-6.61v-85.68c0-3.84-3.262-6.863-7.093-6.594ZM5.521 123.224c3.472 49.097 42.694 88.32 91.79 91.79 3.832.272 7.094-2.753 7.094-6.593v-85.682a6.61 6.61 0 0 0-6.61-6.61h-85.68c-3.84 0-6.863 3.262-6.594 7.093ZM264.85 171.51h-23.07v-47.78h20.93v6.37h-13.72v13.2h11.05v6.5h-11.05v15.27h15.86z"></path><rect width="23.07" height="47.78" x="-11.54" y="-23.89" fill="none" rx="0" ry="0" transform="translate(253.81 148.12)"></rect><path fill="#fff" d="M276.16 171.51h-8.38l14.62-24.9-13.78-22.88h8.78l9.03 16.71 9.3-16.71h8.58l-13.85 22.75 15.21 25.03h-8.64l-10.53-18.92z"></path><rect width="37.89" height="47.78" x="-18.95" y="-23.89" fill="none" rx="0" ry="0" transform="translate(287.23 148.12)"></rect><path fill="#fff" d="M318.74 171.51h-7.35v-47.78h10.53q6.24 0 10.01 1.82 3.77 1.82 5.46 5.04 1.69 3.22 1.69 7.38 0 7.6-4.42 11.73-4.42 4.13-13.39 4.13h-2.53zm0-41.41v17.29h2.73q4.29 0 6.5-1.36 2.21-1.37 2.99-3.38.78-2.02.78-3.9 0-2.28-.85-4.23-.84-1.95-2.92-3.18-2.08-1.24-5.85-1.24z"></path><rect width="27.69" height="47.78" x="-13.85" y="-23.89" fill="none" rx="0" ry="0" transform="translate(325.74 148.12)"></rect><path fill="#fff" d="M367.81 172.16q-4.87 0-9.19-1.69-4.33-1.69-7.64-4.91-3.32-3.22-5.23-7.77-1.92-4.55-1.92-10.27 0-5.78 1.92-10.33 1.91-4.55 5.26-7.74 3.35-3.18 7.67-4.84 4.32-1.66 9.13-1.66 4.81 0 9.14 1.66 4.32 1.66 7.67 4.84 3.34 3.19 5.26 7.74 1.92 4.55 1.92 10.33 0 5.72-1.92 10.27t-5.23 7.77q-3.32 3.22-7.64 4.91t-9.2 1.69m0-6.57q4.42 0 8.13-2.08 3.7-2.08 5.91-6.08 2.21-3.99 2.21-9.84 0-5.92-2.21-9.92-2.21-3.99-5.88-6.04t-8.16-2.05q-4.48 0-8.15 2.05-3.68 2.05-5.89 6.04-2.21 4-2.21 9.92 0 5.85 2.28 9.84 2.27 4 5.98 6.08 3.7 2.08 7.99 2.08"></path><rect width="47.97" height="49.21" x="-23.98" y="-24.61" fill="none" rx="0" ry="0" transform="translate(368.31 148.06)"></rect><path fill="#fff" d="M407.01 171.51h-7.09v-47.78h10.86q3.64 0 7.05.72 3.41.71 6.08 2.4 2.66 1.69 4.22 4.49 1.56 2.79 1.56 6.89 0 4.74-2.21 8.25t-6.69 5.4l11.37 19.63h-8.38l-9.62-18.07q-1.11.06-2.7.09-1.59.04-2.63.04h-1.82zm0-41.73v17.87h4.61q3.58 0 5.76-.91 2.17-.91 3.34-2.31 1.17-1.39 1.6-3.05.42-1.66.42-3.09 0-3.18-1.46-5.04-1.47-1.85-4.03-2.66-2.57-.81-5.89-.81z"></path><rect width="32.24" height="47.78" x="-16.12" y="-23.89" fill="none" rx="0" ry="0" transform="translate(416.54 148.12)"></rect><path fill="#fff" d="M455.89 171.51h-7.22V130.1h-12.22v-6.37h31.79v6.37h-12.35z"></path><rect width="31.79" height="47.78" x="-15.89" y="-23.89" fill="none" rx="0" ry="0" transform="translate(452.85 148.12)"></rect><path fill="#fff" d="M482.34 171.51h-7.08v-47.78h10.85q3.64 0 7.06.72 3.41.71 6.07 2.4 2.67 1.69 4.23 4.49 1.56 2.79 1.56 6.89 0 4.74-2.21 8.25t-6.7 5.4l11.38 19.63h-8.39l-9.62-18.07q-1.1.06-2.69.09-1.6.04-2.64.04h-1.82zm0-41.73v17.87h4.62q3.57 0 5.75-.91t3.35-2.31q1.17-1.39 1.59-3.05.42-1.66.42-3.09 0-3.18-1.46-5.04-1.46-1.85-4.03-2.66-2.57-.81-5.88-.81z"></path><rect width="32.24" height="47.78" x="-16.12" y="-23.89" fill="none" rx="0" ry="0" transform="translate(491.88 148.12)"></rect><path fill="#fff" d="M523.03 171.51h-7.28v-47.78h7.28z"></path><rect width="7.28" height="47.78" x="-3.64" y="-23.89" fill="none" rx="0" ry="0" transform="translate(519.89 148.12)"></rect><path fill="#fff" d="M537.98 171.51h-8.38l14.62-24.9-13.78-22.88h8.78l9.03 16.71 9.3-16.71h8.58l-13.85 22.75 15.21 25.03h-8.64l-10.53-18.92z"></path><rect width="37.89" height="47.78" x="-18.95" y="-23.89" fill="none" rx="0" ry="0" transform="translate(549.04 148.12)"></rect></svg></svg>